<svg width="9" height="9" viewBox="0 0 9 9" fill="none" xmlns="http://www.w3.org/2000/svg">
<g clip-path="url(#clip0_1_425)">
<path d="M6.32327 0.825028L5.36214 0.823486C4.28234 0.823486 3.58452 1.53943 3.58452 2.64753V3.48854H2.61815C2.53464 3.48854 2.46702 3.55624 2.46702 3.63975V4.85827C2.46702 4.94178 2.53472 5.0094 2.61815 5.0094H3.58452V8.08413C3.58452 8.16764 3.65215 8.23526 3.73565 8.23526H4.9965C5.08 8.23526 5.14763 8.16756 5.14763 8.08413V5.0094H6.27754C6.36105 5.0094 6.42867 4.94178 6.42867 4.85827L6.42913 3.63975C6.42913 3.59965 6.41317 3.56125 6.38488 3.53288C6.35658 3.5045 6.31802 3.48854 6.27793 3.48854H5.14763V2.77561C5.14763 2.43294 5.22928 2.25899 5.67565 2.25899L6.32311 2.25876C6.40654 2.25876 6.47416 2.19106 6.47416 2.10763V0.976159C6.47416 0.892806 6.40662 0.825183 6.32327 0.825028Z" fill="white"/>
</g>
<defs>
<clipPath id="clip0_1_425">
<rect width="7.41177" height="7.41177" fill="white" transform="translate(0.764709 0.823486)"/>
</clipPath>
</defs>
</svg>
