<svg width="8" height="8" viewBox="0 0 8 8" fill="none" xmlns="http://www.w3.org/2000/svg">
<g clip-path="url(#clip0_1_432)">
<path d="M2.01951 2.67847H0.531585C0.465549 2.67847 0.412041 2.732 0.412041 2.79801V7.57808C0.412041 7.64411 0.465549 7.69762 0.531585 7.69762H2.01951C2.08555 7.69762 2.13906 7.64411 2.13906 7.57808V2.79801C2.13906 2.732 2.08555 2.67847 2.01951 2.67847Z" fill="white"/>
<path d="M1.27604 0.30249C0.734648 0.30249 0.294197 0.742463 0.294197 1.28326C0.294197 1.82429 0.734648 2.26443 1.27604 2.26443C1.81701 2.26443 2.2571 1.82427 2.2571 1.28326C2.25712 0.742463 1.81701 0.30249 1.27604 0.30249Z" fill="white"/>
<path d="M5.80414 2.55981C5.20654 2.55981 4.76477 2.81672 4.49683 3.10862V2.79816C4.49683 2.73215 4.44332 2.67862 4.37728 2.67862H2.95233C2.8863 2.67862 2.83279 2.73215 2.83279 2.79816V7.57823C2.83279 7.64427 2.8863 7.69778 2.95233 7.69778H4.43701C4.50304 7.69778 4.55655 7.64427 4.55655 7.57823V5.21321C4.55655 4.41625 4.77302 4.10577 5.32857 4.10577C5.93361 4.10577 5.98169 4.6035 5.98169 5.25421V7.57826C5.98169 7.64429 6.0352 7.6978 6.10124 7.6978H7.58646C7.6525 7.6978 7.706 7.64429 7.706 7.57826V4.9563C7.706 3.77126 7.48004 2.55981 5.80414 2.55981Z" fill="white"/>
</g>
<defs>
<clipPath id="clip0_1_432">
<rect width="7.41177" height="7.41177" fill="white" transform="translate(0.294197 0.294189)"/>
</clipPath>
</defs>
</svg>
